<svg xmlns="http://www.w3.org/2000/svg" width="240" height="130" viewBox="0 0 240 130">
  <rect width="240" height="130" rx="12" fill="#1c1c1e"/>
  <g transform="translate(105, 91)">
    <path d="M -40 0 A 40 40 0 0 1 40 0" fill="none" stroke="#3a3a3c" stroke-width="14.7" stroke-linecap="butt"/>
    <path d="M -40.000 0.000 A 40 40 0 0 1 -20.362 -34.430" fill="none" stroke="#4caf50" stroke-width="14.7" stroke-linecap="butt"/>
    <path d="M -20.362 -34.430 A 40 40 0 0 1 19.270 -35.052" fill="none" stroke="#ff9800" stroke-width="14.7" stroke-linecap="butt"/>
    <path d="M 19.270 -35.052 A 40 40 0 0 1 40.000 -0.000" fill="none" stroke="#f44336" stroke-width="14.7" stroke-linecap="butt"/>
    <path d="M -25 -2.5 L -47.5 0 L -25 2.5 z" fill="#e0e0e0" transform="rotate(117)"/>
    <text x="0" y="-5" text-anchor="middle" font-family="sans-serif" font-size="12" fill="#e0e0e0" font-weight="bold">65%</text>
    <text x="-38" y="5" text-anchor="middle" font-family="sans-serif" font-size="5" fill="#e0e0e0" opacity="0.5">0</text><text x="38" y="5" text-anchor="middle" font-family="sans-serif" font-size="5" fill="#e0e0e0" opacity="0.5">100</text>
  </g>
  <text x="120" y="116" text-anchor="middle" font-family="sans-serif" font-size="10" fill="#e0e0e0" opacity="0.9">Segments + needle</text>
  <text x="120" y="127" text-anchor="middle" font-family="sans-serif" font-size="8.5" fill="#e0e0e0" opacity="0.55">Three color segments</text>
</svg>